<?xml version="1.0" encoding="UTF-8" standalone="no"?>
<!DOCTYPE svg PUBLIC "-//W3C//DTD SVG 1.1//EN" "http://www.w3.org/Graphics/SVG/1.1/DTD/svg11.dtd">
<svg width="100%" height="100%" viewBox="0 0 752 400" version="1.1" xmlns="http://www.w3.org/2000/svg" xmlns:xlink="http://www.w3.org/1999/xlink" xml:space="preserve" xmlns:serif="http://www.serif.com/" style="fill-rule:evenodd;clip-rule:evenodd;stroke-linejoin:round;stroke-miterlimit:2;">
    <g transform="matrix(1,0,0,1,-170.7,-170)">
        <g id="Base_1_" transform="matrix(0.978666,0,0,0.959754,11.6417,14.8419)">
            <path d="M722.7,170L370.7,170C260.7,170 170.7,260 170.7,370C170.7,480 260.7,570 370.7,570L722.7,570C832.7,570 922.7,480 922.7,370C922.7,260 832.7,170 722.7,170Z" style="fill:white;fill-rule:nonzero;"/>
        </g>
        <path id="Outline" d="M722.7,186.2C747.4,186.2 771.4,191.1 794,200.7C815.9,210 835.5,223.3 852.5,240.2C869.4,257.1 882.7,276.8 892,298.7C901.6,321.3 906.5,345.3 906.5,370C906.5,394.7 901.6,418.7 892,441.3C882.7,463.2 869.4,482.8 852.5,499.8C835.6,516.7 815.9,530 794,539.3C771.4,548.9 747.4,553.8 722.7,553.8L370.7,553.8C346,553.8 322,548.9 299.4,539.3C277.5,530 257.9,516.7 240.9,499.8C224,482.9 210.7,463.2 201.4,441.3C191.8,418.7 186.9,394.7 186.9,370C186.9,345.3 191.8,321.3 201.4,298.7C210.7,276.8 224,257.2 240.9,240.2C257.8,223.3 277.5,210 299.4,200.7C322,191.1 346,186.2 370.7,186.2L722.7,186.2M722.7,170L370.7,170C260.7,170 170.7,260 170.7,370C170.7,480 260.7,570 370.7,570L722.7,570C832.7,570 922.7,480 922.7,370C922.7,260 832.7,170 722.7,170Z" style="fill:rgb(60,64,67);fill-rule:nonzero;"/>
        <g id="G_Pay_Lockup_1_">
            <g id="Pay_Typeface_3_">
                <path id="Letter_p_3_" d="M529.3,384.1L529.3,444.7L510.1,444.7L510.1,295.3L561,295.3C573.9,295.3 584.9,299.6 593.9,308.2C603.1,316.8 607.7,327.3 607.7,339.7C607.7,352.4 603.1,362.9 593.9,371.4C585,379.9 574,384.1 561,384.1L529.3,384.1ZM529.3,313.7L529.3,365.8L561.4,365.8C569,365.8 575.4,363.2 580.4,358.1C585.5,353 588.1,346.8 588.1,339.8C588.1,332.9 585.5,326.8 580.4,321.7C575.4,316.4 569.1,313.8 561.4,313.8L529.3,313.8L529.3,313.7Z" style="fill:rgb(60,64,67);fill-rule:nonzero;"/>
                <path id="Letter_a_3_" d="M657.9,339.1C672.1,339.1 683.3,342.9 691.5,350.5C699.7,358.1 703.8,368.5 703.8,381.7L703.8,444.7L685.5,444.7L685.5,430.5L684.7,430.5C676.8,442.2 666.2,448 653,448C641.7,448 632.3,444.7 624.7,438C617.1,431.3 613.3,423 613.3,413C613.3,402.4 617.3,394 625.3,387.8C633.3,381.5 644,378.4 657.3,378.4C668.7,378.4 678.1,380.5 685.4,384.7L685.4,380.3C685.4,373.6 682.8,368 677.5,363.3C672.2,358.6 666,356.3 658.9,356.3C648.2,356.3 639.7,360.8 633.5,369.9L616.6,359.3C625.9,345.8 639.7,339.1 657.9,339.1ZM633.1,413.3C633.1,418.3 635.2,422.5 639.5,425.8C643.7,429.1 648.7,430.8 654.4,430.8C662.5,430.8 669.7,427.8 676,421.8C682.3,415.8 685.5,408.8 685.5,400.7C679.5,396 671.2,393.6 660.5,393.6C652.7,393.6 646.2,395.5 641,399.2C635.7,403.1 633.1,407.8 633.1,413.3Z" style="fill:rgb(60,64,67);fill-rule:nonzero;"/>
                <path id="Letter_y_3_" d="M808.2,342.4L744.2,489.6L724.4,489.6L748.2,438.1L706,342.4L726.9,342.4L757.3,415.8L757.7,415.8L787.3,342.4L808.2,342.4Z" style="fill:rgb(60,64,67);fill-rule:nonzero;"/>
            </g>
            <g id="G_Mark_1_">
                <path id="Blue_500" d="M452.93,372C452.93,365.74 452.37,359.75 451.33,353.99L370.85,353.99L370.85,386.99L417.2,387C415.32,397.98 409.27,407.34 400,413.58L400,434.99L427.59,434.99C443.7,420.08 452.93,398.04 452.93,372Z" style="fill:rgb(66,133,244);fill-rule:nonzero;"/>
                <path id="Green_500_1_" d="M400.01,413.58C392.33,418.76 382.44,421.79 370.87,421.79C348.52,421.79 329.56,406.73 322.77,386.43L294.31,386.43L294.31,408.51C308.41,436.49 337.39,455.69 370.87,455.69C394.01,455.69 413.45,448.08 427.6,434.98L400.01,413.58Z" style="fill:rgb(52,168,83);fill-rule:nonzero;"/>
                <path id="Yellow_500_1_" d="M320.09,370.05C320.09,364.35 321.04,358.84 322.77,353.66L322.77,331.58L294.31,331.58C288.48,343.15 285.2,356.21 285.2,370.05C285.2,383.89 288.49,396.95 294.31,408.52L322.77,386.44C321.04,381.26 320.09,375.75 320.09,370.05Z" style="fill:rgb(250,187,5);fill-rule:nonzero;"/>
                <path id="Red_500" d="M370.87,318.3C383.5,318.3 394.81,322.65 403.74,331.15L428.19,306.72C413.34,292.89 393.98,284.4 370.87,284.4C337.4,284.4 308.41,303.6 294.31,331.58L322.77,353.66C329.56,333.36 348.52,318.3 370.87,318.3Z" style="fill:rgb(233,66,53);fill-rule:nonzero;"/>
            </g>
        </g>
    </g>
</svg>
